<svg xmlns="http://www.w3.org/2000/svg" width="200" height="19" viewBox="0 0 255 23" fill="none">
  <g clip-path="url(#clip0_467_7469)">
    <path d="M100.418 19.5734V22.6014H87.1563C82.5253 22.6014 80.2114 20.4359 80.2114 16.108V16.0631C80.224 14.0863 81.1376 12.5319 82.9523 11.4027C81.1251 10.4053 80.2114 8.85987 80.2114 6.77228V6.6974C80.2585 2.48928 82.5724 0.386719 87.1563 0.386719H100.418V3.41477H87.1563C84.8518 3.41477 83.7027 4.51098 83.7027 6.7004C83.7027 8.88982 84.8549 9.98303 87.1563 9.98303H100.418V13.0111H87.1563C84.8518 13.0111 83.7027 14.0294 83.7027 16.0661C83.7027 18.4083 84.8549 19.5763 87.1563 19.5763H100.418V19.5734Z" fill="#1E1E1E"/>
    <path d="M139.741 13.0052C134.9 13.0052 132.482 10.8966 132.482 6.6795C132.482 2.46239 134.903 0.383789 139.741 0.383789H150.507V3.41184H139.741C137.135 3.41184 135.832 4.50805 135.832 6.69747C135.832 8.88689 137.135 9.9801 139.741 9.9801H144.978C149.829 9.9801 152.253 12.1126 152.253 16.3806C152.253 20.6487 149.826 22.6015 144.978 22.6015H134.212V19.5734H144.978C147.502 19.5734 148.764 18.4892 148.764 16.3207V16.2908C148.764 14.1014 147.502 13.0082 144.978 13.0082H139.741V13.0052Z" fill="#1E1E1E"/>
    <path d="M168.73 22.5985H165.238V3.41184H157.21V0.383789H176.755V3.41184H168.727V22.6015L168.73 22.5985Z" fill="#1E1E1E"/>
    <path d="M199.705 3.41184H191.903C187.099 3.41184 184.697 6.11043 184.697 11.5076C184.697 16.9048 187.099 19.5734 191.903 19.5734H196.213V22.6015L191.903 22.6164H191.834C184.748 22.6164 181.206 18.8786 181.206 11.4028C181.206 3.927 184.776 0.383789 191.906 0.383789H203.196V22.5985H199.705V3.41184Z" fill="#1E1E1E"/>
    <path d="M218.941 3.41184C214.219 3.41184 211.858 6.10444 211.858 11.4926C211.858 16.8808 214.219 19.5734 218.941 19.5734H229.393V22.6015L218.941 22.5715C211.892 22.5505 208.367 18.8606 208.367 11.4926C208.367 4.12467 211.889 0.383789 218.941 0.383789H229.393V3.41184H218.941Z" fill="#1E1E1E"/>
    <path d="M243.986 11.7951L254.23 22.6015H249.59L241.738 14.338L238.162 18.1657V22.6015H234.67V0.383789H238.162V13.5503L249.744 0.383789H254.227L243.982 11.7951H243.986Z" fill="#1E1E1E"/>
    <path d="M22.3352 11.25C22.3352 18.8157 18.6116 22.6015 11.1676 22.6015C3.72358 22.6015 0 18.8067 0 11.2201C0 3.63348 3.733 0.383789 11.2021 0.383789C18.6713 0.383789 22.3352 4.00487 22.3352 11.25ZM3.48811 11.25C3.48811 16.7999 6.04689 19.5734 11.1645 19.5734C16.282 19.5734 18.844 16.7999 18.844 11.25C18.844 6.02357 16.2977 3.41184 11.2021 3.41184C6.10654 3.41184 3.48811 6.02357 3.48811 11.25Z" fill="#1E1E1E"/>
    <path d="M56.4212 4.15137H52.707V6.10118L56.4212 8.15283V4.15137Z" fill="#2A25EA"/>
    <path d="M52.707 6.95215V10.9267H56.4212V9.00379L52.707 6.95215Z" fill="#2A25EA"/>
    <path d="M63.7872 19.5734C68.8954 19.5734 71.4479 16.8988 71.4479 11.5525C71.4479 6.20627 68.8954 3.41184 63.7872 3.41184H52.7075V0.383789H63.7872C71.2218 0.383789 74.9391 4.06178 74.9391 11.4177V11.4926C74.9171 18.8995 71.1998 22.6015 63.7872 22.6015H52.7075V19.5734H63.7872Z" fill="#1E1E1E"/>
    <path d="M43.9425 22.5985C43.9425 17.2103 42.3727 14.5177 39.2299 14.5177H27.6416V11.4896H39.2299C42.3695 11.4896 43.9425 10.1418 43.9425 7.44924C43.9425 4.75664 42.3727 3.40884 39.2299 3.40884H27.6416V0.383789H39.2299C44.696 0.383789 47.4306 2.74094 47.4306 7.45223C47.4306 10.8008 46.2721 12.7596 43.9582 13.3226C46.2721 14.1792 47.4306 17.2522 47.4306 22.5386V22.5985H43.9393H43.9425Z" fill="#1E1E1E"/>
    <path d="M123.374 22.5985C123.374 17.2103 121.804 14.5177 118.662 14.5177H107.073V11.4896H118.662C121.801 11.4896 123.374 10.1418 123.374 7.44924C123.374 4.75664 121.804 3.40884 118.662 3.40884H107.073V0.383789H118.662C124.128 0.383789 126.862 2.74094 126.862 7.45223C126.862 10.8008 125.704 12.7596 123.39 13.3226C125.704 14.1792 126.862 17.2522 126.862 22.5386V22.5985H123.371H123.374Z" fill="#1E1E1E"/>
    <path d="M110.737 0.557129H107.023V22.5981H110.737V0.557129Z" fill="#1E1E1E"/>
    <path d="M31.3055 0.557129H27.5913V22.5981H31.3055V0.557129Z" fill="#1E1E1E"/>
  </g>
  <defs>
    <clipPath id="clip0_467_7469">
      <rect width="254.227" height="22.2327" fill="white" transform="translate(0 0.383789)"/>
    </clipPath>
  </defs>
</svg>
